<svg xmlns="http://www.w3.org/2000/svg" viewBox="0 0 259.44 260.39">
  <style>path { fill: #00aced } @media (prefers-color-scheme: dark) { path { fill: #33bdff } }</style>
  <path d="M207.29,259.94c-18.4.91-32.86-7.25-43.18-22.78-13.79-20.74-42.56-24.21-60.76-9-3.4,2.84-6.08,6.63-8.77,10.23-17.7,23.66-49.33,29.23-73,11.76C1,235-6.15,209.19,5.79,184.77Q44.6,105.48,84.25,26.61C94.9,5.32,123.09-5.12,145.64,2.46c15.15,5.1,25.27,15.08,32.14,28.86q36.83,74,73.39,148c6,12.06,10.35,24.46,7.25,38.47C253.38,240.62,233.34,261.58,207.29,259.94ZM172.92,50.1c-.36,3.26-.43,5.89-1,8.41C166.89,82,145.87,95.76,122.11,91.24c-10.14-1.93-20.35-3.61-30.72-3-14.78.92-27.57,5.63-35.15,19.6C44.24,130,34,153.07,22.75,175.57a6,6,0,0,0-.25,2c1.59.55,2.47-.27,3.33-.9C43.34,163.86,63,163.27,82.88,168c37.16,8.83,66.52,29.65,88.64,60.7,12.83,18,30.16,24.07,48.86,17.83,20.69-6.9,33.61-32.35,25.07-51.87-5.27-12.06-11.34-23.71-17.17-35.5q-25.51-51.56-51.06-103.1C176.26,54.11,175.78,51.78,172.92,50.1Z"/>
</svg>
